P3
# feep.ppma
# this is a test
# hello
4 4
255
 0  0  0  0  0  0    0  0  0    255 0 255
 0  0  0  0 255 255    0  0  0    0  0  0
 0  0  0  0  0  0    0 255 7    0  0  0
255  0 255  0  0  0    0  0  0    0  0  0
